<svg width="0" height="0" class="hidden">
    <symbol fill="none" xmlns="http://www.w3.org/2000/svg" viewBox="0 -9 58 58" id="paypal-svgrepo-com">
        <rect x="0.5" y="0.5" width="57" height="39" rx="3.5" fill="white" stroke="#F3F3F3"></rect>
        <path fill-rule="evenodd" clip-rule="evenodd"
              d="M26.4388 20.2562L26.6913 18.6477L26.1288 18.6346H23.4429L25.3095 6.76505C25.3153 6.72911 25.3341 6.69575 25.3616 6.67201C25.3892 6.64827 25.4243 6.63525 25.4611 6.63525H29.9901C31.4937 6.63525 32.5313 6.94897 33.073 7.56826C33.327 7.85879 33.4887 8.16246 33.567 8.49653C33.6491 8.84713 33.6505 9.26596 33.5704 9.77689L33.5646 9.81405V10.1415L33.8186 10.2858C34.0324 10.3996 34.2024 10.5298 34.3328 10.6788C34.55 10.9273 34.6905 11.2431 34.7499 11.6173C34.8113 12.0022 34.791 12.4604 34.6905 12.979C34.5746 13.5755 34.3873 14.0951 34.1343 14.5202C33.9016 14.9119 33.6052 15.2369 33.2531 15.4886C32.9171 15.7279 32.5178 15.9095 32.0664 16.0257C31.6288 16.1399 31.1301 16.1975 30.583 16.1975H30.2305C29.9786 16.1975 29.7338 16.2886 29.5416 16.4517C29.3489 16.6183 29.2215 16.8459 29.1824 17.0947L29.1558 17.2396L28.7096 20.0747L28.6894 20.1787C28.684 20.2117 28.6748 20.2281 28.6613 20.2392C28.6493 20.2494 28.632 20.2562 28.615 20.2562H26.4388"
              fill="#28356A"></path>
        <path fill-rule="evenodd" clip-rule="evenodd"
              d="M34.0589 9.85181C34.0455 9.93848 34.03 10.027 34.0126 10.1181C33.4154 13.1934 31.372 14.2558 28.7623 14.2558H27.4335C27.1143 14.2558 26.8453 14.4881 26.7957 14.8038L25.9227 20.3573C25.8904 20.5647 26.0497 20.7514 26.2582 20.7514H28.615C28.894 20.7514 29.1311 20.5481 29.1751 20.2721L29.1982 20.1521L29.6419 17.3281L29.6705 17.1732C29.7139 16.8962 29.9515 16.6928 30.2305 16.6928H30.583C32.8663 16.6928 34.6538 15.7632 35.1763 13.0728C35.3944 11.9489 35.2815 11.0105 34.704 10.3505C34.5293 10.1516 34.3125 9.98635 34.0589 9.85181"
              fill="#298FC2"></path>
        <path fill-rule="evenodd" clip-rule="evenodd"
              d="M33.4342 9.60206C33.3429 9.57534 33.2488 9.5512 33.1522 9.52936C33.0551 9.50807 32.9557 9.48922 32.8533 9.47267C32.4951 9.41462 32.1025 9.38708 31.682 9.38708H28.1322C28.0447 9.38708 27.9617 9.40689 27.8874 9.44269C27.7236 9.52163 27.602 9.67707 27.5726 9.86736L26.8174 14.6641L26.7957 14.8039C26.8454 14.4882 27.1144 14.2558 27.4335 14.2558H28.7623C31.372 14.2558 33.4154 13.1929 34.0127 10.1181C34.0305 10.0271 34.0455 9.93856 34.0589 9.85189C33.9078 9.77146 33.7442 9.7027 33.568 9.64411C33.5244 9.62959 33.4795 9.61562 33.4342 9.60206"
              fill="#22284F"></path>
        <path fill-rule="evenodd" clip-rule="evenodd"
              d="M27.5726 9.86737C27.6021 9.67708 27.7236 9.52165 27.8874 9.44325C27.9622 9.40731 28.0447 9.38751 28.1322 9.38751H31.682C32.1025 9.38751 32.4951 9.41518 32.8534 9.47323C32.9557 9.48964 33.0551 9.50863 33.1522 9.52992C33.2488 9.55162 33.3429 9.5759 33.4342 9.60248C33.4795 9.61605 33.5244 9.63015 33.5684 9.64412C33.7446 9.70272 33.9084 9.77202 34.0595 9.85191C34.2372 8.71545 34.058 7.94168 33.4453 7.241C32.7698 6.46953 31.5507 6.1394 29.9906 6.1394H25.4615C25.1429 6.1394 24.8711 6.37174 24.8218 6.68803L22.9354 18.6796C22.8982 18.9168 23.0807 19.1309 23.3193 19.1309H26.1153L27.5726 9.86737"
              fill="#28356A"></path>
        <path fill-rule="evenodd" clip-rule="evenodd"
              d="M13.0946 23.5209H9.79248C9.56648 23.5209 9.3743 23.6855 9.339 23.9093L8.00345 32.4009C7.97695 32.5686 8.10638 32.7195 8.27584 32.7195H9.85225C10.0782 32.7195 10.2704 32.555 10.3057 32.3308L10.6659 30.0404C10.7006 29.8162 10.8932 29.6516 11.1188 29.6516H12.1641C14.3393 29.6516 15.5946 28.5959 15.9226 26.5042C16.0703 25.589 15.9288 24.87 15.5014 24.3664C15.0321 23.8134 14.1997 23.5209 13.0946 23.5209ZM13.4755 26.6224C13.2949 27.8106 12.3896 27.8106 11.5143 27.8106H11.0159L11.3655 25.5914C11.3863 25.4573 11.5021 25.3585 11.6374 25.3585H11.8658C12.4621 25.3585 13.0246 25.3585 13.3152 25.6994C13.4886 25.9027 13.5416 26.2049 13.4755 26.6224Z"
              fill="#28356A"></path>
        <path fill-rule="evenodd" clip-rule="evenodd"
              d="M23.0496 26.5199H21.4683C21.3336 26.5199 21.2171 26.6187 21.1964 26.7528L21.1264 27.1963L21.0159 27.0356C20.6736 26.5373 19.9101 26.3707 19.1483 26.3707C17.4008 26.3707 15.9084 27.698 15.6177 29.5598C15.4666 30.4885 15.6814 31.3766 16.2068 31.9959C16.6887 32.5653 17.3782 32.8026 18.1985 32.8026C19.6065 32.8026 20.3871 31.8947 20.3871 31.8947L20.3167 32.3354C20.2902 32.5038 20.4196 32.6549 20.5881 32.6549H22.0124C22.2389 32.6549 22.4301 32.4903 22.4659 32.2661L23.3205 26.8385C23.3475 26.6714 23.2185 26.5199 23.0496 26.5199ZM20.8453 29.6064C20.6928 30.5122 19.9759 31.1204 19.0613 31.1204C18.6022 31.1204 18.2353 30.9727 17.9995 30.6929C17.7658 30.415 17.6771 30.0194 17.7513 29.5787C17.8939 28.6805 18.6229 28.0524 19.5235 28.0524C19.9725 28.0524 20.3375 28.2022 20.578 28.4843C20.8188 28.7695 20.9145 29.1676 20.8453 29.6064Z"
              fill="#28356A"></path>
        <path fill-rule="evenodd" clip-rule="evenodd"
              d="M31.3495 26.6556H29.7604C29.6088 26.6556 29.4664 26.7312 29.3805 26.8576L27.1888 30.095L26.2598 26.9839C26.2014 26.7892 26.0223 26.6556 25.8195 26.6556H24.2581C24.0682 26.6556 23.9365 26.8416 23.9968 27.0208L25.7471 32.1718L24.1016 34.5014C23.9722 34.6849 24.1025 34.9372 24.3261 34.9372H25.9132C26.0639 34.9372 26.2048 34.8635 26.2903 34.7397L31.5754 27.089C31.702 26.906 31.572 26.6556 31.3495 26.6556"
              fill="#28356A"></path>
        <path fill-rule="evenodd" clip-rule="evenodd"
              d="M36.6469 23.5209H33.3444C33.1189 23.5209 32.9267 23.6855 32.8914 23.9093L31.5559 32.4009C31.5294 32.5686 31.6588 32.7195 31.8273 32.7195H33.5221C33.6794 32.7195 33.8141 32.6044 33.8387 32.4475L34.2178 30.0404C34.2525 29.8162 34.4453 29.6516 34.6707 29.6516H35.7156C37.8912 29.6516 39.1461 28.5959 39.4745 26.5042C39.6227 25.589 39.4803 24.87 39.0529 24.3664C38.584 23.8134 37.7521 23.5209 36.6469 23.5209ZM37.0279 26.6224C36.8478 27.8106 35.9424 27.8106 35.0666 27.8106H34.5689L34.9189 25.5914C34.9396 25.4573 35.0545 25.3585 35.1902 25.3585H35.4186C36.0144 25.3585 36.5774 25.3585 36.868 25.6994C37.0414 25.9027 37.094 26.2049 37.0279 26.6224Z"
              fill="#298FC2"></path>
        <path fill-rule="evenodd" clip-rule="evenodd"
              d="M46.5999 26.5199H45.0195C44.8839 26.5199 44.7685 26.6187 44.7482 26.7528L44.6782 27.1963L44.5671 27.0356C44.2248 26.5373 43.4619 26.3707 42.6999 26.3707C40.9526 26.3707 39.4607 27.698 39.1701 29.5598C39.0194 30.4885 39.2332 31.3766 39.7585 31.9959C40.2415 32.5653 40.9299 32.8026 41.7503 32.8026C43.1582 32.8026 43.9389 31.8947 43.9389 31.8947L43.8685 32.3354C43.842 32.5038 43.9713 32.6549 44.1408 32.6549H45.5647C45.7902 32.6549 45.9823 32.4903 46.0176 32.2661L46.8727 26.8385C46.8988 26.6714 46.7693 26.5199 46.5999 26.5199ZM44.3958 29.6064C44.2442 30.5122 43.5262 31.1204 42.6116 31.1204C42.1534 31.1204 41.7856 30.9727 41.5498 30.6929C41.3163 30.415 41.2283 30.0194 41.3016 29.5787C41.4451 28.6805 42.1732 28.0524 43.0738 28.0524C43.5228 28.0524 43.8878 28.2022 44.1283 28.4843C44.3701 28.7695 44.4657 29.1676 44.3958 29.6064Z"
              fill="#298FC2"></path>
        <path fill-rule="evenodd" clip-rule="evenodd"
              d="M48.3324 23.7543L46.9771 32.4013C46.9506 32.569 47.0799 32.7199 47.2484 32.7199H48.611C48.8375 32.7199 49.0296 32.5554 49.0643 32.3312L50.4008 23.84C50.4275 23.6724 50.298 23.5209 50.1295 23.5209H48.6038C48.4691 23.5213 48.3532 23.6202 48.3324 23.7543"
              fill="#298FC2"></path>
    </symbol>
    <symbol fill="none" xmlns="http://www.w3.org/2000/svg" viewBox="0 -9 58 58" id="ideal-svgrepo-com">
        <rect x="0.5" y="0.5" width="57" height="39" rx="3.5" fill="white" stroke="#F3F3F3"></rect>
        <path d="M10.7 3.69995V36.15H29.6C42.1 36.15 47.5 29.15 47.5 19.9C47.5 10.65 42 3.69995 29.6 3.69995H10.7Z"
              fill="white"></path>
        <path fill-rule="evenodd" clip-rule="evenodd"
              d="M29.6 5.75H12.75V34.1H29.6C39.3 34.1 45.45 29.35 45.45 19.9C45.45 12 41.05 5.75 29.6 5.75ZM14.35 32.5V7.45H29.6C38.4 7.45 43.8 11.45 43.8 19.95C43.8 28.2 38.8 32.5 29.6 32.5H14.35Z"
              fill="#000000"></path>
        <path d="M16.4 21.7H21.3V30.4H16.4V21.7Z" fill="#000000"></path>
        <path
            d="M18.85 20.4C20.5345 20.4 21.9 19.0345 21.9 17.35C21.9 15.6656 20.5345 14.3 18.85 14.3C17.1655 14.3 15.8 15.6656 15.8 17.35C15.8 19.0345 17.1655 20.4 18.85 20.4Z"
            fill="#000000"></path>
        <path fill-rule="evenodd" clip-rule="evenodd"
              d="M38.25 14.55H39.65V18.75H41.7C41.15 11.1 35.1 9.40002 29.6 9.40002H23.75V14.55H24.6C26.2 14.55 27.15 15.6 27.15 17.35C27.15 19.1 26.2 20.15 24.65 20.15H23.75V30.4H29.6C38.55 30.4 41.6 26.25 41.75 20.15H38.25V14.55ZM31.5 18.75V20.15H28V14.55H31.4V15.95H29.4V16.6H31.3V18H29.45V18.75H31.5ZM33.8 14.55H35.8L37.5 20.15H36.05L35.75 19.1H33.9L33.6 20.15H32.1L33.8 14.55ZM34.3156 17.65H34.3V17.7L34.3156 17.65ZM34.3156 17.65H35.3L34.85 16.1H34.8L34.3156 17.65ZM23.75 18.75V15.95H24.6C25.15 15.95 25.75 16.1 25.75 17.35C25.75 18.6 25.2 18.75 24.6 18.75H23.75Z"
              fill="#D50072"></path>
    </symbol>
    <symbol fill="none" xmlns="http://www.w3.org/2000/svg" viewBox="0 -9 58 58" id="amex-svgrepo-com">
        <rect x="0.5" y="0.5" width="57" height="39" rx="3.5" fill="#006FCF" stroke="#F3F3F3"></rect>
        <path fill-rule="evenodd" clip-rule="evenodd"
              d="M11.8632 28.8937V20.6592H21.1869L22.1872 21.8787L23.2206 20.6592H57.0632V28.3258C57.0632 28.3258 56.1782 28.8855 55.1546 28.8937H36.4152L35.2874 27.5957V28.8937H31.5916V26.6779C31.5916 26.6779 31.0867 26.9872 29.9953 26.9872H28.7373V28.8937H23.1415L22.1426 27.6481L21.1284 28.8937H11.8632ZM1 14.4529L3.09775 9.86914H6.7256L7.9161 12.4368V9.86914H12.4258L13.1346 11.7249L13.8216 9.86914H34.0657V10.8021C34.0657 10.8021 35.1299 9.86914 36.8789 9.86914L43.4474 9.89066L44.6173 12.4247V9.86914H48.3913L49.43 11.3247V9.86914H53.2386V18.1037H49.43L48.4346 16.6434V18.1037H42.8898L42.3321 16.8056H40.8415L40.293 18.1037H36.5327C35.0277 18.1037 34.0657 17.1897 34.0657 17.1897V18.1037H28.3961L27.2708 16.8056V18.1037H6.18816L5.63093 16.8056H4.14505L3.59176 18.1037H1V14.4529ZM1.01082 17.05L3.84023 10.8843H5.98528L8.81199 17.05H6.92932L6.40997 15.8154H3.37498L2.85291 17.05H1.01082ZM5.81217 14.4768L4.88706 12.3192L3.95925 14.4768H5.81217ZM9.00675 17.049V10.8832L11.6245 10.8924L13.147 14.8676L14.6331 10.8832H17.2299V17.049H15.5853V12.5058L13.8419 17.049H12.3996L10.6514 12.5058V17.049H9.00675ZM18.3552 17.049V10.8832H23.7219V12.2624H20.0171V13.3171H23.6353V14.6151H20.0171V15.7104H23.7219V17.049H18.3552ZM24.674 17.05V10.8843H28.3339C29.5465 10.8843 30.6331 11.5871 30.6331 12.8846C30.6331 13.9938 29.717 14.7082 28.8289 14.7784L30.9929 17.05H28.9831L27.0111 14.8596H26.3186V17.05H24.674ZM28.1986 12.2635H26.3186V13.5615H28.223C28.5526 13.5615 28.9776 13.3221 28.9776 12.9125C28.9776 12.5941 28.6496 12.2635 28.1986 12.2635ZM32.9837 17.049H31.3045V10.8832H32.9837V17.049ZM36.9655 17.049H36.603C34.8492 17.049 33.7844 15.754 33.7844 13.9915C33.7844 12.1854 34.8373 10.8832 37.052 10.8832H38.8698V12.3436H36.9856C36.0865 12.3436 35.4507 13.0012 35.4507 14.0067C35.4507 15.2008 36.1777 15.7023 37.2251 15.7023H37.6579L36.9655 17.049ZM37.7147 17.05L40.5441 10.8843H42.6892L45.5159 17.05H43.6332L43.1139 15.8154H40.0789L39.5568 17.05H37.7147ZM42.5161 14.4768L41.591 12.3192L40.6632 14.4768H42.5161ZM45.708 17.049V10.8832H47.7989L50.4687 14.7571V10.8832H52.1134V17.049H50.09L47.3526 13.0737V17.049H45.708ZM12.9885 27.8391V21.6733H18.3552V23.0525H14.6504V24.1072H18.2686V25.4052H14.6504V26.5005H18.3552V27.8391H12.9885ZM39.2853 27.8391V21.6733H44.6519V23.0525H40.9472V24.1072H44.5481V25.4052H40.9472V26.5005H44.6519V27.8391H39.2853ZM18.5635 27.8391L21.1765 24.7942L18.5012 21.6733H20.5733L22.1665 23.6026L23.7651 21.6733H25.756L23.1159 24.7562L25.7338 27.8391H23.6621L22.1151 25.9402L20.6057 27.8391H18.5635ZM25.9291 27.8401V21.6744H29.5619C31.0525 21.6744 31.9234 22.5748 31.9234 23.7482C31.9234 25.1647 30.8131 25.893 29.3482 25.893H27.617V27.8401H25.9291ZM29.4402 23.0687H27.617V24.4885H29.4348C29.9151 24.4885 30.2517 24.1901 30.2517 23.7786C30.2517 23.3406 29.9134 23.0687 29.4402 23.0687ZM32.6375 27.8391V21.6733H36.2973C37.51 21.6733 38.5966 22.3761 38.5966 23.6736C38.5966 24.7828 37.6805 25.4972 36.7923 25.5675L38.9563 27.8391H36.9465L34.9746 25.6486H34.2821V27.8391H32.6375ZM36.1621 23.0525H34.2821V24.3505H36.1864C36.5161 24.3505 36.9411 24.1112 36.9411 23.7015C36.9411 23.3831 36.6131 23.0525 36.1621 23.0525ZM45.4137 27.8391V26.5005H48.7051C49.1921 26.5005 49.403 26.2538 49.403 25.9833C49.403 25.7241 49.1928 25.462 48.7051 25.462H47.2177C45.9249 25.462 45.2048 24.7237 45.2048 23.6153C45.2048 22.6267 45.8642 21.6733 47.7854 21.6733H50.9881L50.2956 23.0606H47.5257C46.9962 23.0606 46.8332 23.321 46.8332 23.5697C46.8332 23.8253 47.0347 24.1072 47.4392 24.1072H48.9972C50.4384 24.1072 51.0638 24.8734 51.0638 25.8768C51.0638 26.9555 50.367 27.8391 48.9188 27.8391H45.4137ZM51.2088 27.8391V26.5005H54.5002C54.9873 26.5005 55.1981 26.2538 55.1981 25.9833C55.1981 25.7241 54.9879 25.462 54.5002 25.462H53.0129C51.72 25.462 51 24.7237 51 23.6153C51 22.6267 51.6594 21.6733 53.5806 21.6733H56.7833L56.0908 23.0606H53.3209C52.7914 23.0606 52.6284 23.321 52.6284 23.5697C52.6284 23.8253 52.8298 24.1072 53.2343 24.1072H54.7924C56.2336 24.1072 56.859 24.8734 56.859 25.8768C56.859 26.9555 56.1621 27.8391 54.7139 27.8391H51.2088Z"
              fill="white"></path>
    </symbol>
    <symbol fill="none" xmlns="http://www.w3.org/2000/svg" viewBox="0 -9 58 58" id="apple-pay-svgrepo-com">
        <rect x="0.5" y="0.5" width="57" height="39" rx="3.5" fill="white" stroke="#F3F3F3"></rect>
        <path fill-rule="evenodd" clip-rule="evenodd"
              d="M17.5771 14.9265C17.1553 15.4313 16.4803 15.8294 15.8053 15.7725C15.7209 15.09 16.0513 14.3649 16.4381 13.9171C16.8599 13.3981 17.5982 13.0284 18.1959 13C18.2662 13.7109 17.992 14.4076 17.5771 14.9265ZM18.1888 15.9076C17.5942 15.873 17.0516 16.0884 16.6133 16.2624C16.3313 16.3744 16.0924 16.4692 15.9107 16.4692C15.7068 16.4692 15.4581 16.3693 15.1789 16.2571C14.813 16.1102 14.3947 15.9422 13.956 15.9502C12.9506 15.9645 12.0154 16.5403 11.5021 17.4573C10.4474 19.2915 11.2279 22.0071 12.2474 23.5C12.7467 24.2393 13.3443 25.0498 14.1318 25.0213C14.4783 25.0081 14.7275 24.9012 14.9854 24.7905C15.2823 24.6631 15.5908 24.5308 16.0724 24.5308C16.5374 24.5308 16.8324 24.6597 17.1155 24.7834C17.3847 24.9011 17.6433 25.014 18.0271 25.0071C18.8428 24.9929 19.356 24.2678 19.8553 23.5284C20.394 22.7349 20.6307 21.9605 20.6667 21.843L20.6709 21.8294C20.67 21.8285 20.6634 21.8254 20.6516 21.82C20.4715 21.7366 19.095 21.0995 19.0818 19.391C19.0686 17.957 20.1736 17.2304 20.3476 17.116C20.3582 17.109 20.3653 17.1043 20.3685 17.1019C19.6654 16.0498 18.5685 15.936 18.1888 15.9076ZM23.8349 24.9289V13.846H27.9482C30.0717 13.846 31.5553 15.3246 31.5553 17.4858C31.5553 19.6469 30.0435 21.1398 27.892 21.1398H25.5365V24.9289H23.8349ZM25.5365 15.2962H27.4982C28.9748 15.2962 29.8185 16.0924 29.8185 17.4929C29.8185 18.8934 28.9748 19.6967 27.4912 19.6967H25.5365V15.2962ZM37.1732 23.5995C36.7232 24.4668 35.7318 25.0142 34.6631 25.0142C33.081 25.0142 31.9771 24.0616 31.9771 22.6256C31.9771 21.2038 33.0459 20.3863 35.0217 20.2654L37.1451 20.1374V19.5261C37.1451 18.6232 36.5615 18.1327 35.5209 18.1327C34.6631 18.1327 34.0373 18.5806 33.9107 19.263H32.3779C32.4271 17.827 33.7631 16.782 35.5701 16.782C37.5177 16.782 38.7834 17.8128 38.7834 19.4123V24.9289H37.2084V23.5995H37.1732ZM35.1201 23.6991C34.2131 23.6991 33.6365 23.2583 33.6365 22.5829C33.6365 21.8863 34.192 21.481 35.2537 21.4171L37.1451 21.2962V21.9218C37.1451 22.9597 36.2732 23.6991 35.1201 23.6991ZM44.0076 25.3626C43.3256 27.3033 42.5451 27.9431 40.8857 27.9431C40.7592 27.9431 40.3373 27.9289 40.2388 27.9005V26.5711C40.3443 26.5853 40.6045 26.5995 40.7381 26.5995C41.4904 26.5995 41.9123 26.2796 42.1724 25.4479L42.3271 24.9573L39.4443 16.8886H41.2232L43.2271 23.436H43.2623L45.2662 16.8886H46.9959L44.0076 25.3626Z"
              fill="#000000"></path>
    </symbol>
    <symbol fill="none" xmlns="http://www.w3.org/2000/svg" viewBox="0 -9 58 58" id="google-pay-svgrepo-com">
        <rect x="0.5" y="0.5" width="57" height="39" rx="3.5" fill="white" stroke="#F3F3F3"></rect>
        <path fill-rule="evenodd" clip-rule="evenodd"
              d="M27.9174 24.1182V19.6071V19.6062H30.3578C31.3639 19.6068 32.2095 19.2907 32.8945 18.6578C33.5868 18.0571 33.9738 17.1935 33.9541 16.2934C33.9678 15.3982 33.5815 14.541 32.8945 13.9422C32.2155 13.3059 31.3023 12.9587 30.3578 12.9778H26.4404V24.1182H27.9174ZM27.9174 18.2382V14.3494V14.3485H30.3945C30.9466 14.3334 31.4788 14.5487 31.856 14.9396C32.2355 15.2971 32.4496 15.7881 32.4496 16.3009C32.4496 16.8137 32.2355 17.3048 31.856 17.6622C31.4741 18.0449 30.9436 18.254 30.3945 18.2382H27.9174Z"
              fill="#5F6368"></path>
        <path fill-rule="evenodd" clip-rule="evenodd"
              d="M39.9431 17.0951C39.3113 16.5297 38.4496 16.2471 37.3578 16.2471C35.9554 16.2471 34.8963 16.7448 34.1807 17.7404L35.4817 18.5342C35.9624 17.8598 36.6153 17.5226 37.4404 17.5226C37.9664 17.5167 38.4755 17.703 38.8661 18.0444C39.2555 18.3564 39.4795 18.8215 39.4762 19.3111V19.6382C38.9086 19.3271 38.1863 19.1715 37.3092 19.1715C36.2817 19.1727 35.4603 19.4062 34.845 19.872C34.2297 20.3377 33.922 20.965 33.922 21.7537C33.9086 22.4719 34.2302 23.1577 34.7973 23.6204C35.3807 24.1182 36.1058 24.3671 36.9725 24.3671C37.9878 24.3671 38.8012 23.9315 39.4129 23.0604H39.4771V24.1182H40.8899V19.4204C40.8905 18.4355 40.5749 17.6604 39.9431 17.0951ZM35.9367 22.7182C35.6273 22.5021 35.4448 22.1544 35.4468 21.7848C35.4468 21.3697 35.6477 21.024 36.0523 20.7395C36.4529 20.4592 36.9532 20.3191 37.5532 20.3191C38.3771 20.3191 39.0193 20.4968 39.4798 20.8524C39.4798 21.4533 39.2352 21.9768 38.7459 22.4231C38.3052 22.8501 37.7077 23.0905 37.0844 23.0915C36.6689 23.099 36.2634 22.9672 35.9367 22.7182Z"
              fill="#5F6368"></path>
        <path fill-rule="evenodd" clip-rule="evenodd"
              d="M49 16.496L44.0679 27.4782H42.5431L44.3734 23.6355L41.1303 16.496H42.7358L45.0798 21.9715H45.1119L47.3917 16.496H49Z"
              fill="#5F6368"></path>
        <path fill-rule="evenodd" clip-rule="evenodd"
              d="M21.9486 18.6347C21.9492 18.1986 21.9111 17.7632 21.8349 17.3334H15.6055V19.7983H19.1734C19.0259 20.5938 18.5493 21.2964 17.8541 21.7432V23.3432H19.9835C21.2303 22.2294 21.9486 20.5823 21.9486 18.6347Z"
              fill="#4285F4"></path>
        <path fill-rule="evenodd" clip-rule="evenodd"
              d="M15.6055 24.8889C17.3881 24.8889 18.889 24.3217 19.9835 23.344L17.8541 21.744C17.2615 22.1333 16.4982 22.3555 15.6055 22.3555C13.8826 22.3555 12.4202 21.2302 11.8973 19.7137H9.70367V21.3626C10.8249 23.5244 13.1085 24.8887 15.6055 24.8889Z"
              fill="#34A853"></path>
        <path fill-rule="evenodd" clip-rule="evenodd"
              d="M11.8973 19.7138C11.6208 18.9192 11.6208 18.0586 11.8973 17.264V15.6151H9.70367C8.76585 17.4232 8.76585 19.5546 9.70367 21.3627L11.8973 19.7138Z"
              fill="#FBBC04"></path>
        <path fill-rule="evenodd" clip-rule="evenodd"
              d="M15.6055 14.6223C16.5475 14.6073 17.4577 14.9522 18.1395 15.5823V15.5823L20.0248 13.7556C18.8293 12.6677 17.2455 12.0704 15.6055 12.0889C13.1085 12.089 10.8249 13.4534 9.70367 15.6151L11.8973 17.264C12.4202 15.7476 13.8826 14.6223 15.6055 14.6223Z"
              fill="#EA4335"></path>
    </symbol>
    <symbol fill="none" xmlns="http://www.w3.org/2000/svg" viewBox="0 -9 58 58" id="klarna-svgrepo-com">
        <rect x="0.5" y="0.5" width="57" height="39" rx="3.5" fill="#F4B6C7" stroke="#F3F3F3"></rect>
        <path fill-rule="evenodd" clip-rule="evenodd"
              d="M7.41299 25.7963H5V15H7.41299V25.7963ZM13.4398 15H11.0784C11.0784 16.9868 10.1885 18.8104 8.63709 20.0034L7.70155 20.7226L11.3264 25.7967H14.3068L10.9714 21.1277C12.5525 19.5116 13.4398 17.3373 13.4398 15ZM17.289 25.7933H15.0102V15.0021H17.289V25.7933ZM24.1766 18.3286V18.8061C23.5616 18.3754 22.8192 18.1223 22.0185 18.1223C19.8993 18.1223 18.1815 19.8857 18.1815 22.0611C18.1815 24.2365 19.8993 26 22.0185 26C22.8192 26 23.5616 25.7469 24.1766 25.3163V25.7933H26.3539V18.3286H24.1766ZM24.1694 22.0611C24.1694 23.1218 23.2861 23.9818 22.1966 23.9818C21.1071 23.9818 20.2238 23.1218 20.2238 22.0611C20.2238 21.0004 21.1071 20.1407 22.1966 20.1407C23.2861 20.1407 24.1694 21.0004 24.1694 22.0611ZM47.1454 18.8061V18.3286H49.3226V25.7933H47.1454V25.3163C46.5304 25.7469 45.788 26 44.9872 26C42.868 26 41.1502 24.2365 41.1502 22.0611C41.1502 19.8857 42.868 18.1223 44.9872 18.1223C45.788 18.1223 46.5304 18.3754 47.1454 18.8061ZM45.1654 23.9818C46.255 23.9818 47.1381 23.1218 47.1381 22.0611C47.1381 21.0004 46.255 20.1407 45.1654 20.1407C44.0758 20.1407 43.1926 21.0004 43.1926 22.0611C43.1926 23.1218 44.0758 23.9818 45.1654 23.9818ZM50.2675 24.5482C50.2675 23.7736 50.8792 23.1457 51.6337 23.1457C52.3882 23.1457 53 23.7736 53 24.5482C53 25.3227 52.3882 25.9507 51.6337 25.9507C50.8792 25.9507 50.2675 25.3227 50.2675 24.5482ZM37.2814 18.1278C36.4117 18.1278 35.5887 18.405 35.0384 19.1697V18.329H32.8706V25.7933H35.065V21.8706C35.065 20.7354 35.8065 20.1796 36.6993 20.1796C37.6562 20.1796 38.2063 20.7663 38.2063 21.8551V25.7933H40.3809V21.0463C40.3809 19.3092 39.0354 18.1278 37.2814 18.1278ZM29.7219 18.3287V19.3009C30.1583 18.7177 30.9715 18.3291 31.8557 18.3291V20.5013L31.8487 20.501L31.8435 20.5008L31.8379 20.5005L31.8298 20.5003C30.9684 20.5003 29.7269 21.1323 29.7269 22.3082V25.7933H27.4928V18.3287H29.7219Z"
              fill="#17120F"></path>
    </symbol>
    <symbol fill="none" xmlns="http://www.w3.org/2000/svg" viewBox="0 -9 58 58" id="mastercard-full-svgrepo-com">
        <rect x="0.5" y="0.5" width="57" height="39" rx="3.5" fill="white" stroke="#F3F3F3"></rect>
        <path fill-rule="evenodd" clip-rule="evenodd"
              d="M21.2489 30.8906V32.3674V33.8443H20.6016V33.4857C20.3963 33.7517 20.0848 33.9186 19.6614 33.9186C18.8266 33.9186 18.1722 33.27 18.1722 32.3674C18.1722 31.4656 18.8266 30.8163 19.6614 30.8163C20.0848 30.8163 20.3963 30.9832 20.6016 31.2492V30.8906H21.2489ZM19.7419 31.4218C19.1816 31.4218 18.8387 31.8483 18.8387 32.3674C18.8387 32.8866 19.1816 33.3131 19.7419 33.3131C20.2773 33.3131 20.6387 32.905 20.6387 32.3674C20.6387 31.8299 20.2773 31.4218 19.7419 31.4218ZM43.1228 32.3674C43.1228 31.8483 43.4657 31.4218 44.026 31.4218C44.5621 31.4218 44.9228 31.8299 44.9228 32.3674C44.9228 32.905 44.5621 33.3131 44.026 33.3131C43.4657 33.3131 43.1228 32.8866 43.1228 32.3674ZM45.5338 29.7044V32.3674V33.8443H44.8858V33.4857C44.6804 33.7517 44.3689 33.9186 43.9455 33.9186C43.1107 33.9186 42.4563 33.27 42.4563 32.3674C42.4563 31.4656 43.1107 30.8163 43.9455 30.8163C44.3689 30.8163 44.6804 30.9832 44.8858 31.2492V29.7044H45.5338ZM29.2838 31.3914C29.7008 31.3914 29.9688 31.6509 30.0373 32.1079H28.4925C28.5616 31.6814 28.8225 31.3914 29.2838 31.3914ZM27.8138 32.3674C27.8138 31.4465 28.424 30.8163 29.2966 30.8163C30.1307 30.8163 30.7038 31.4465 30.7102 32.3674C30.7102 32.4537 30.7038 32.5344 30.6974 32.6143H28.4868C28.5802 33.1462 28.9601 33.3379 29.3771 33.3379C29.6758 33.3379 29.9938 33.2261 30.2433 33.0288L30.5605 33.5048C30.1991 33.8075 29.7885 33.9186 29.3401 33.9186C28.449 33.9186 27.8138 33.3068 27.8138 32.3674ZM37.1126 32.3674C37.1126 31.8483 37.4555 31.4218 38.0158 31.4218C38.5511 31.4218 38.9126 31.8299 38.9126 32.3674C38.9126 32.905 38.5511 33.3131 38.0158 33.3131C37.4555 33.3131 37.1126 32.8866 37.1126 32.3674ZM39.5228 30.8906V32.3674V33.8443H38.8755V33.4857C38.6695 33.7517 38.3587 33.9186 37.9352 33.9186C37.1004 33.9186 36.446 33.27 36.446 32.3674C36.446 31.4656 37.1004 30.8163 37.9352 30.8163C38.3587 30.8163 38.6695 30.9832 38.8755 31.2492V30.8906H39.5228ZM33.4569 32.3674C33.4569 33.2636 34.0857 33.9186 35.0452 33.9186C35.4936 33.9186 35.7923 33.8196 36.116 33.5663L35.8051 33.0472C35.5621 33.2205 35.3068 33.3131 35.026 33.3131C34.5091 33.3068 34.1292 32.9361 34.1292 32.3674C34.1292 31.7988 34.5091 31.4281 35.026 31.4218C35.3068 31.4218 35.5621 31.5144 35.8051 31.6877L36.116 31.1685C35.7923 30.9153 35.4936 30.8163 35.0452 30.8163C34.0857 30.8163 33.4569 31.4713 33.4569 32.3674ZM41.0177 31.2492C41.1859 30.9896 41.429 30.8163 41.8026 30.8163C41.9337 30.8163 42.1205 30.8411 42.2638 30.8969L42.0642 31.5024C41.9273 31.4465 41.7904 31.4281 41.6593 31.4281C41.2358 31.4281 41.0241 31.6997 41.0241 32.1885V33.8443H40.3761V30.8906H41.0177V31.2492ZM24.4505 31.1254C24.1389 30.9217 23.7098 30.8163 23.2364 30.8163C22.4822 30.8163 21.9967 31.1749 21.9967 31.762C21.9967 32.2437 22.3582 32.5407 23.024 32.6334L23.3298 32.6765C23.6848 32.7261 23.8524 32.8187 23.8524 32.9856C23.8524 33.2141 23.6157 33.3442 23.1737 33.3442C22.7253 33.3442 22.4017 33.2021 22.1835 33.0351L21.8784 33.5352C22.2334 33.7948 22.6818 33.9186 23.1673 33.9186C24.027 33.9186 24.5253 33.5168 24.5253 32.9545C24.5253 32.4353 24.1332 32.1637 23.4852 32.0711L23.1801 32.0272C22.9 31.9904 22.6754 31.9353 22.6754 31.7372C22.6754 31.5208 22.8871 31.3914 23.2421 31.3914C23.6221 31.3914 23.9899 31.5335 24.1703 31.6446L24.4505 31.1254ZM32.0184 31.2492C32.1859 30.9896 32.429 30.8163 32.8025 30.8163C32.9337 30.8163 33.1205 30.8411 33.2637 30.8969L33.0641 31.5024C32.9273 31.4465 32.7904 31.4281 32.6592 31.4281C32.2358 31.4281 32.0241 31.6997 32.0241 32.1885V33.8443H31.3768V30.8906H32.0184V31.2492ZM27.2784 30.8906H26.2198V29.9944H25.5654V30.8906H24.9616V31.4776H25.5654V32.8251C25.5654 33.5105 25.8334 33.9186 26.5991 33.9186C26.8799 33.9186 27.2036 33.8323 27.4089 33.6901L27.2221 33.1398C27.0289 33.2509 26.8172 33.3068 26.649 33.3068C26.3253 33.3068 26.2198 33.1087 26.2198 32.8123V31.4776H27.2784V30.8906ZM17.5997 31.9904V33.8443H16.9453V32.2005C16.9453 31.6997 16.7336 31.4218 16.2916 31.4218C15.8617 31.4218 15.563 31.6941 15.563 32.2069V33.8443H14.9086V32.2005C14.9086 31.6997 14.6912 31.4218 14.2613 31.4218C13.8186 31.4218 13.5321 31.6941 13.5321 32.2069V33.8443H12.8784V30.8906H13.5264V31.2548C13.7695 30.909 14.0803 30.8163 14.3982 30.8163C14.853 30.8163 15.1767 31.0144 15.382 31.3418C15.6564 30.9274 16.0485 30.8099 16.4285 30.8163C17.1513 30.8227 17.5997 31.2923 17.5997 31.9904Z"
              fill="#231F20"></path>
        <path d="M34.0465 25.8715H24.2359V8.3783H34.0465V25.8715Z" fill="#FF5F00"></path>
        <path
            d="M24.8583 17.1253C24.8583 13.5767 26.5328 10.4157 29.1405 8.37867C27.2336 6.88907 24.8269 5.99998 22.2114 5.99998C16.0194 5.99998 11 10.9809 11 17.1253C11 23.2697 16.0194 28.2506 22.2114 28.2506C24.8269 28.2506 27.2336 27.3615 29.1405 25.8719C26.5328 23.8349 24.8583 20.6739 24.8583 17.1253"
            fill="#EB001B"></path>
        <path
            d="M47.2818 17.1253C47.2818 23.2697 42.2624 28.2506 36.0704 28.2506C33.4548 28.2506 31.0482 27.3615 29.1405 25.8719C31.7489 23.8349 33.4235 20.6739 33.4235 17.1253C33.4235 13.5767 31.7489 10.4157 29.1405 8.37867C31.0482 6.88907 33.4548 5.99998 36.0704 5.99998C42.2624 5.99998 47.2818 10.9809 47.2818 17.1253"
            fill="#F79E1B"></path>
    </symbol>
    <symbol fill="none" xmlns="http://www.w3.org/2000/svg" viewBox="0 -9 58 58" id="visa-classic-svgrepo-com">
        <rect x="0.5" y="0.5" width="57" height="39" rx="3.5" fill="white" stroke="#F3F3F3"></rect>
        <path d="M25.7516 27.4332H21.8901L24.3054 13.4325H28.1667L25.7516 27.4332Z" fill="#15195A"></path>
        <path
            d="M39.7499 13.7748C38.9882 13.4915 37.7802 13.1787 36.2865 13.1787C32.4731 13.1787 29.7878 15.0851 29.7713 17.8106C29.7396 19.8215 31.6939 20.9384 33.1556 21.6089C34.6495 22.2941 35.1574 22.7413 35.1574 23.352C35.1422 24.29 33.9502 24.7223 32.8384 24.7223C31.2967 24.7223 30.4707 24.4994 29.2153 23.9776L28.7069 23.7539L28.1665 26.8967C29.0722 27.2835 30.7408 27.6268 32.4731 27.6419C36.5249 27.6419 39.1627 25.765 39.1939 22.8605C39.2093 21.2667 38.1774 20.0454 35.9526 19.0475C34.602 18.4069 33.7749 17.9749 33.7749 17.3195C33.7908 16.7236 34.4745 16.1133 35.9991 16.1133C37.2544 16.0834 38.1768 16.3663 38.8755 16.6494L39.2247 16.7981L39.7499 13.7748V13.7748V13.7748Z"
            fill="#15195A"></path>
        <path fill-rule="evenodd" clip-rule="evenodd"
              d="M46.6618 13.4325H49.6486L52.7639 27.433H49.1885C49.1885 27.433 48.8386 25.8244 48.7278 25.3328H43.7699C43.6266 25.705 42.9595 27.433 42.9595 27.433H38.9078L44.6435 14.5941C45.0409 13.6855 45.7407 13.4325 46.6618 13.4325ZM46.4238 18.556C46.4238 18.556 45.2001 21.6689 44.8821 22.4732H48.0918C47.933 21.7733 47.2017 18.4219 47.2017 18.4219L46.9319 17.2156C46.8182 17.5262 46.6539 17.9533 46.543 18.2414C46.4679 18.4366 46.4173 18.568 46.4238 18.556Z"
              fill="#15195A"></path>
        <path fill-rule="evenodd" clip-rule="evenodd"
              d="M5.1589 13.4325H11.3716C12.2138 13.462 12.8971 13.7152 13.1194 14.6094L14.4696 21.0422C14.4697 21.0426 14.4699 21.043 14.47 21.0434L14.8832 22.9796L18.6649 13.4325H22.7481L16.6785 27.4184H12.5951L9.15337 15.253C7.96587 14.6021 6.6106 14.0786 5.09534 13.7154L5.1589 13.4325Z"
              fill="#15195A"></path>
    </symbol>
</svg>
